<svg width="111" height="75" viewBox="0 0 71 55" fill="none" xmlns="http://www.w3.org/2000/svg">
<path d="M21.0943 16.6859C20.8852 20.3943 22.4953 24.0275 25.5703 26.7863C28.6454 29.545 32.9336 31.2032 37.4915 31.3961C42.0494 31.5891 46.5037 30.301 49.8745 27.8151C53.2452 25.3293 55.2564 21.8494 55.4655 18.1409C55.6746 14.4324 54.0645 10.7992 50.9894 8.04052C47.9143 5.28181 43.6262 3.62359 39.0683 3.43064C34.5104 3.23769 30.0561 4.52582 26.6853 7.01166C23.3145 9.4975 21.3034 12.9774 21.0943 16.6859" fill="#23BDF7"/>
<path d="M21.0943 16.6859C20.8852 20.3943 22.4953 24.0275 25.5703 26.7863C28.6454 29.545 32.9336 31.2032 37.4915 31.3961C42.0494 31.5891 46.5037 30.301 49.8745 27.8151C53.2452 25.3293 55.2564 21.8494 55.4655 18.1409C55.6746 14.4324 54.0645 10.7992 50.9894 8.04052C47.9143 5.28181 43.6262 3.62359 39.0683 3.43064C34.5104 3.23769 30.0561 4.52582 26.6853 7.01166C23.3145 9.4975 21.3034 12.9774 21.0943 16.6859" stroke="white" stroke-width="5.35189"/>
<path d="M34.046 20.4351C34.0357 20.4512 34.0251 20.4668 34.0141 20.4825C34.0048 20.4958 33.9968 20.51 33.987 20.5229L34.09 20.4797L34.0597 20.4146C34.0554 20.4217 34.0504 20.4281 34.046 20.4351Z" fill="#D59D71"/>
<path d="M35.1827 20.8812L36.8363 20.187L37.5673 21.7573L35.9137 22.4515L35.1827 20.8812Z" fill="#D59D71"/>
<path d="M33.8372 24.1833L35.4909 23.4892L36.2218 25.0595L34.5682 25.7536L33.8372 24.1833Z" fill="#D59D71"/>
<path d="M39.2858 21.0359C39.2869 21.0354 39.288 21.0356 39.2891 21.0352C39.2865 21.0032 39.2839 20.9717 39.2841 20.9395C39.2842 20.9299 39.2813 20.9205 39.2817 20.9108L37.8309 20.3777L38.325 21.4392L39.2858 21.0359Z" fill="#D59D71"/>
<path d="M34.6424 13.0556C34.7563 13.0098 34.874 12.9738 34.9946 12.9479C35.0168 12.9431 35.0394 12.9416 35.0617 12.9375C35.1581 12.9199 35.2553 12.9084 35.3537 12.9039C35.3918 12.9021 35.4295 12.9022 35.4677 12.9024C35.5556 12.9029 35.6431 12.9092 35.7309 12.9205C35.7676 12.9251 35.8039 12.9283 35.8404 12.9348C35.9615 12.9567 36.0817 12.9857 36.1991 13.0289C37.1322 13.3717 37.6553 14.2898 37.4941 15.1921L41.0593 16.502C41.4887 15.9327 42.2854 15.687 43.0042 15.9511C43.1064 15.9887 43.2029 16.0354 43.2936 16.0898C43.32 16.1056 43.3421 16.1265 43.3675 16.1437C43.4292 16.1855 43.4909 16.2271 43.5457 16.2764C43.5479 16.2783 43.5506 16.2797 43.5528 16.2816C43.8308 15.9335 44.0564 15.5493 44.2254 15.1343C44.6586 14.0712 44.6716 12.9053 44.2653 11.8361C44.2529 11.8291 44.24 11.8198 44.2276 11.8124C44.2061 11.7996 44.1839 11.7851 44.1621 11.7712C44.1131 11.74 44.0631 11.7064 44.0125 11.6701C43.9909 11.6545 43.9686 11.6386 43.9466 11.6221C43.8898 11.5798 43.831 11.5344 43.771 11.4866C43.755 11.4739 43.739 11.4616 43.7227 11.4485C43.6456 11.3864 43.5661 11.3215 43.4817 11.252C42.8851 10.7613 42.1427 10.1508 41.084 9.76174L40.9345 10.1286C40.6872 10.7356 39.9661 11.0383 39.3269 10.8035C39.2239 10.7656 39.1131 10.7682 39.0161 10.8104C38.9075 10.8545 38.8309 10.9306 38.791 11.0284L38.4921 11.7622C38.2448 12.3692 37.5237 12.6719 36.8845 12.4371C36.571 12.3219 36.3266 12.0986 36.1961 11.8076C36.062 11.5301 36.0526 11.2082 36.1739 10.9105L36.6413 9.76316C36.6097 9.74167 36.5791 9.71888 36.5492 9.69552C35.8316 10.2195 35.2832 10.916 34.9527 11.7272C34.776 12.1608 34.6682 12.6064 34.6303 13.0593C34.6342 13.0577 34.6385 13.0572 34.6424 13.0556Z" fill="#EF81EB"/>
<path d="M36.3371 18.1416L39.8143 19.4192L39.5154 20.153L36.0381 18.8754L36.3371 18.1416Z" fill="#D59D71"/>
<path d="M36.9348 8.94496C37.0304 9.06908 37.1594 9.16344 37.3077 9.21792C37.5212 9.29639 37.6272 9.52398 37.5446 9.72679L36.9466 11.1944C36.9067 11.2922 36.9094 11.3974 36.9539 11.4896C37.0003 11.5927 37.0805 11.6654 37.1835 11.7033C37.3966 11.7816 37.6368 11.6808 37.7193 11.4783L38.0183 10.7445C38.1396 10.4468 38.3747 10.2147 38.6811 10.0908C38.9734 9.96341 39.3123 9.95449 39.6259 10.0697C39.8391 10.148 40.0792 10.0472 40.1617 9.84475L40.4562 9.12205C40.535 8.92856 40.7587 8.82663 40.9672 8.88881C41.1021 8.92931 41.2392 8.97514 41.3829 9.02796C42.5764 9.46646 43.4134 10.1547 44.0242 10.6571C44.3273 10.9065 44.5891 11.1222 44.7717 11.202C44.8266 11.2259 44.8519 11.2278 44.8557 11.228C44.8544 11.2258 44.9503 11.1684 45.0893 10.8335C45.0715 10.7388 44.8994 10.5268 44.8246 10.4346C44.743 10.3344 44.6675 10.2408 44.6202 10.1432L43.7361 9.44892C43.5598 9.31083 43.5351 9.06281 43.681 8.89522C43.8268 8.72798 44.0863 8.70343 44.2641 8.84292L44.6992 9.18454C44.7762 7.86844 43.9463 6.59515 42.5789 6.09272C41.1472 5.56668 39.5565 6.04226 38.6924 7.19572L39.7501 7.58434C39.9636 7.66281 40.0696 7.8904 39.987 8.0932C39.9043 8.29601 39.6647 8.39661 39.4511 8.31815L37.9287 7.75876C37.5751 7.62886 37.1972 7.71326 36.9863 7.95504C36.6675 8.32112 36.7596 8.71704 36.9348 8.94496Z" fill="#EF81EB"/>
<path d="M32.3239 17.0889C32.2414 17.2913 32.3476 17.5194 32.5608 17.5978L32.8598 16.8639C32.7568 16.8261 32.646 16.8286 32.549 16.8709C32.4403 16.915 32.3638 16.9911 32.3239 17.0889Z" fill="#D59D71"/>
<path d="M34.4249 21.1992L33.4424 21.6117L33.3705 23.1805L33.5023 23.4637L35.1559 22.7696L34.4249 21.1992Z" fill="#D59D71"/>
<path d="M35.4029 19.5157C35.3727 19.5292 35.3419 19.5385 35.3109 19.5496C35.2484 19.5719 35.1854 19.59 35.1205 19.6024C35.0859 19.6091 35.0519 19.6144 35.0169 19.6182C34.9499 19.6254 34.8829 19.6259 34.8152 19.6225C34.7839 19.6209 34.7531 19.6217 34.7218 19.6178C34.6745 19.612 34.6281 19.6001 34.5811 19.5889L34.8477 20.1616L35.9655 19.6924L35.4437 19.5007C35.4305 19.5071 35.4162 19.5097 35.4029 19.5157Z" fill="#D59D71"/>
<path d="M42.1325 20.271L41.8335 21.0048C41.9365 21.0427 42.0473 21.0401 42.1443 20.9979C42.253 20.9538 42.3295 20.8777 42.3694 20.7799C42.4519 20.5775 42.3457 20.3494 42.1325 20.271Z" fill="#D59D71"/>
<path d="M42.4731 19.4353C42.543 19.4246 42.6122 19.4085 42.6789 19.3805C42.8819 19.2953 43.0373 19.1407 43.1169 18.9454C43.2064 18.7257 43.1892 18.4846 43.0695 18.2845C42.9927 18.1558 42.9981 17.9975 43.0836 17.874C43.1258 17.8129 43.1562 17.7586 43.179 17.7027C43.2607 17.5022 43.252 17.282 43.1548 17.0823C43.0877 16.9453 42.981 16.8317 42.8474 16.7524C42.8029 16.726 42.7553 16.7034 42.7052 16.685C42.2793 16.5285 41.7983 16.7303 41.6335 17.1349C41.5509 17.3377 41.3112 17.4383 41.0977 17.3598L37.1918 15.9247C36.9976 16.2118 36.7295 16.4498 36.4062 16.6091C36.2961 16.6633 36.1726 16.6661 36.0658 16.6269C35.9749 16.5935 35.8958 16.5299 35.8477 16.4413C35.742 16.2484 35.8213 16.011 36.0244 15.911C36.2932 15.7782 36.5014 15.5577 36.6108 15.2894C36.8581 14.6824 36.5393 13.9976 35.9002 13.7628C35.4183 13.5857 34.8664 13.7129 34.5269 14.0788C34.4253 14.1832 34.3466 14.305 34.2926 14.4376C34.2508 14.6274 34.0651 14.7659 33.8611 14.7557C33.7462 14.7501 33.6209 14.7724 33.5089 14.8194C33.3064 14.9045 33.151 15.0591 33.0714 15.2544C32.9918 15.4497 32.9972 15.6634 33.0869 15.8562C33.1767 16.049 33.3395 16.1966 33.5451 16.2721C33.7587 16.3506 33.8646 16.5782 33.782 16.781L33.184 18.2486L32.5861 19.7162C32.5423 19.8237 32.551 19.9439 32.6098 20.0467C32.6445 20.1064 32.7281 20.2129 32.8926 20.2437C32.9348 20.253 32.9714 20.2537 33.0155 20.2476C33.1689 20.2278 33.3138 20.1105 33.3768 19.9561L33.8073 18.8994L34.1063 18.1656C34.1889 17.9628 34.4286 17.8622 34.6421 17.9407C34.8557 18.0191 34.9616 18.2467 34.879 18.4495L34.7295 18.8164C34.8678 18.8673 35.021 18.8442 35.1395 18.7546C35.1397 18.7544 35.1399 18.7541 35.1402 18.7539C35.1951 18.7128 35.2395 18.6549 35.2654 18.5915L35.7138 17.4908C35.7965 17.288 36.0361 17.1874 36.2497 17.2658L40.4997 18.8274C40.7133 18.9059 40.8192 19.1335 40.7366 19.3363L40.1386 20.8039C40.0988 20.9017 40.1014 21.0069 40.1459 21.0991C40.2021 21.2231 40.3112 21.3056 40.4475 21.3318C40.6292 21.3693 40.829 21.257 40.9142 21.0712C40.9194 21.0595 40.9255 21.0477 40.9321 21.037L40.9322 21.0366L41.5093 19.6202L41.8083 18.8864C41.8909 18.6836 42.1306 18.583 42.3441 18.6615C42.5577 18.7399 42.6636 18.9675 42.581 19.1703L42.4731 19.4353ZM35.2397 17.4768C35.2025 17.5138 35.159 17.544 35.1093 17.5681C35.057 17.5868 35.0042 17.5971 34.9504 17.5983C34.8965 17.5995 34.8418 17.5922 34.7916 17.5738C34.7414 17.5553 34.6958 17.5258 34.6568 17.4905C34.6178 17.4551 34.5857 17.4137 34.5607 17.3666C34.541 17.3169 34.5302 17.2668 34.5289 17.2157C34.5235 17.163 34.5353 17.1126 34.5547 17.0649C34.5936 16.9696 34.6748 16.8895 34.7729 16.8456C34.8961 16.7936 35.0479 16.8032 35.165 16.8755C35.1864 16.8879 35.2065 16.9036 35.2254 16.9233C35.2455 16.9389 35.2644 16.9586 35.2814 16.9817C35.2946 17.0035 35.3083 17.0254 35.3215 17.0472C35.3626 17.1422 35.3663 17.2535 35.3275 17.3488C35.3081 17.3965 35.2769 17.4398 35.2397 17.4768Z" fill="#EF81EB"/>
<path d="M36.2486 23.1711L36.9796 24.7414L37.2781 24.6161L38.3366 23.41L37.9022 22.4769L36.2486 23.1711Z" fill="#D59D71"/>
<path d="M39.6207 21.7555L38.66 22.1588L38.9284 22.7356L39.715 21.8392C39.6827 21.8128 39.6574 21.7799 39.6282 21.7506C39.6253 21.7518 39.6236 21.7543 39.6207 21.7555Z" fill="#D59D71"/>
<path d="M35.1614 27.028L36.0829 25.978L34.9032 26.4732L35.1614 27.028Z" fill="#D59D71"/>
<path d="M33.2892 24.9518L33.2265 26.3169L33.8105 26.0717L33.2892 24.9518Z" fill="#D59D71"/>
<path d="M33.1863 27.1939L33.1758 27.4229C33.1481 27.7295 33.3268 28.0032 33.6094 28.107C33.892 28.2108 34.2181 28.1226 34.4024 27.8929L34.5696 27.7024L34.1454 26.7913L33.1863 27.1939Z" fill="#D59D71"/>
<path d="M43.0666 20.0718C43.4448 19.8976 43.7376 19.6024 43.8896 19.2292C44.0388 18.8631 44.039 18.4656 43.8956 18.1085C43.9164 18.0679 43.9351 18.0274 43.9517 17.9866C44.0795 17.6731 44.091 17.3264 43.9975 17.0013C44.4205 16.5318 44.7599 16.0029 44.9982 15.4182C45.4526 14.3029 45.5086 13.0917 45.1716 11.9519C45.4604 11.8348 45.6768 11.5721 45.8698 11.0984C46.0503 10.6555 45.7074 10.2333 45.4803 9.95379C45.461 9.92981 45.4423 9.90768 45.4256 9.88674C45.8773 7.99462 44.8021 6.0659 42.8779 5.35886C41.0098 4.67248 38.9214 5.34777 37.8788 6.93048C37.3045 6.83563 36.7191 7.02757 36.3482 7.45358C35.9384 7.92393 35.8455 8.52952 36.0672 9.05771C35.2184 9.67156 34.5688 10.4888 34.18 11.4433C33.8853 12.1665 33.7623 12.9202 33.7996 13.6852C33.725 13.7784 33.6555 13.8766 33.5992 13.9834C33.4544 14.0035 33.3109 14.0426 33.1745 14.0996C32.769 14.2695 32.4581 14.5791 32.2987 14.9704C32.1465 15.3438 32.1539 15.7494 32.3104 16.1201C32.2784 16.131 32.2451 16.1377 32.214 16.1512C31.9076 16.2751 31.6725 16.5072 31.5512 16.8049C31.3039 17.4119 31.6227 18.0967 32.2618 18.3315L31.8134 19.4322C31.6815 19.7558 31.7069 20.1173 31.8828 20.4233C32.0251 20.6713 32.2548 20.8603 32.5223 20.9586C32.561 20.9728 32.6015 20.9816 32.6416 20.9918L32.497 24.1445C32.4969 24.1467 32.4966 24.1487 32.4967 24.1508L32.3693 26.9274C32.3692 26.9341 32.3682 26.9403 32.3684 26.947L32.3489 27.3732C32.2906 28.008 32.686 28.6113 33.3104 28.8408C33.9349 29.0702 34.6549 28.8767 35.0492 28.3847L35.3503 28.0416C35.3544 28.0376 35.3574 28.0332 35.3613 28.0291L37.2367 25.892C37.238 25.8908 37.2389 25.8895 37.2401 25.8883L40.545 22.1224C40.8906 22.1151 41.2204 21.9639 41.4544 21.7091L41.5346 21.7386C41.8481 21.8538 42.1871 21.8449 42.4793 21.7174C42.7857 21.5936 43.0208 21.3615 43.1422 21.0638C43.2797 20.7261 43.2372 20.3668 43.0666 20.0718ZM36.9863 7.95499C37.1972 7.71321 37.5751 7.62881 37.9287 7.75871L39.4511 8.3181C39.6647 8.39657 39.9044 8.29596 39.987 8.09316C40.0696 7.89036 39.9637 7.66276 39.7501 7.58429L38.6924 7.19567C39.5565 6.04222 41.1472 5.56663 42.5789 6.09267C43.9463 6.5951 44.7762 7.86839 44.6992 9.1845L44.2641 8.84288C44.0863 8.70338 43.8268 8.72793 43.6811 8.89517C43.5351 9.06276 43.5599 9.31078 43.7361 9.44887L44.6203 10.1431C44.6676 10.2408 44.743 10.3343 44.8246 10.4346C44.8994 10.5268 45.0716 10.7387 45.0894 10.8334C44.9503 11.1683 44.8545 11.2258 44.8558 11.2279C44.8519 11.2277 44.8267 11.2259 44.7718 11.202C44.5891 11.1221 44.3274 10.9065 44.0242 10.6571C43.4134 10.1546 42.5764 9.46641 41.383 9.02791C41.2392 8.97509 41.1021 8.92926 40.9672 8.88876C40.7588 8.82658 40.535 8.92851 40.4562 9.122L40.1617 9.8447C40.0793 10.0471 39.8391 10.148 39.6259 10.0696C39.3123 9.95444 38.9734 9.96336 38.6811 10.0908C38.3747 10.2147 38.1396 10.4467 38.0183 10.7445L37.7193 11.4783C37.6369 11.6807 37.3967 11.7816 37.1835 11.7032C37.0805 11.6654 37.0004 11.5927 36.9539 11.4895C36.9094 11.3974 36.9068 11.2922 36.9466 11.1944L37.5446 9.72674C37.6272 9.52394 37.5213 9.29634 37.3077 9.21787C37.1594 9.16339 37.0304 9.06903 36.9348 8.94491C36.7596 8.71699 36.6676 8.32108 36.9863 7.95499ZM36.5492 9.69549C36.5791 9.71886 36.6098 9.74165 36.6413 9.76314L36.1739 10.9104C36.0526 11.2082 36.062 11.5301 36.1962 11.8076C36.3266 12.0986 36.571 12.3218 36.8845 12.437C37.5237 12.6719 38.2448 12.3692 38.4921 11.7622L38.7911 11.0284C38.8309 10.9306 38.9075 10.8545 39.0161 10.8104C39.1131 10.7682 39.2239 10.7656 39.3269 10.8035C39.9661 11.0383 40.6872 10.7356 40.9345 10.1286L41.084 9.76172C42.1427 10.1507 42.8851 10.7613 43.4817 11.252C43.5661 11.3214 43.6456 11.3864 43.7227 11.4485C43.739 11.4616 43.755 11.4739 43.771 11.4866C43.831 11.5344 43.8899 11.5798 43.9466 11.6221C43.9687 11.6386 43.9909 11.6545 44.0125 11.67C44.0631 11.7064 44.1131 11.7399 44.1621 11.7712C44.1839 11.7851 44.2061 11.7996 44.2276 11.8124C44.2401 11.8198 44.2529 11.829 44.2653 11.8361C44.6716 12.9053 44.6586 14.0712 44.2254 15.1343C44.0564 15.5492 43.8308 15.9335 43.5528 16.2816C43.5506 16.2797 43.5479 16.2783 43.5457 16.2764C43.4909 16.2271 43.4292 16.1854 43.3675 16.1436C43.3421 16.1264 43.32 16.1056 43.2936 16.0898C43.2029 16.0354 43.1064 15.9886 43.0042 15.9511C42.2855 15.687 41.4887 15.9327 41.0593 16.502L37.4942 15.192C37.6553 14.2898 37.1322 13.3717 36.1992 13.0289C36.0817 12.9857 35.9615 12.9566 35.8404 12.9348C35.8039 12.9283 35.7676 12.9251 35.7309 12.9204C35.6431 12.9092 35.5556 12.9029 35.4677 12.9024C35.4295 12.9022 35.3918 12.9021 35.3537 12.9038C35.2553 12.9084 35.1581 12.9199 35.0617 12.9374C35.0394 12.9415 35.0168 12.9431 34.9946 12.9479C34.874 12.9738 34.7563 13.0098 34.6424 13.0556C34.6385 13.0571 34.6342 13.0577 34.6303 13.0592C34.6682 12.6064 34.776 12.1608 34.9527 11.7272C35.2832 10.916 35.8316 10.2195 36.5492 9.69549ZM32.3239 17.0888C32.3638 16.991 32.4404 16.9149 32.549 16.8708C32.646 16.8286 32.7568 16.826 32.8598 16.8639L32.5608 17.5977C32.3476 17.5194 32.2415 17.2913 32.3239 17.0888ZM32.6098 20.0466C32.551 19.9438 32.5423 19.8236 32.5861 19.7161L33.1841 18.2485L33.782 16.7809C33.8646 16.5781 33.7587 16.3505 33.5451 16.272C33.3395 16.1965 33.1767 16.0489 33.0869 15.8561C32.9972 15.6633 32.9918 15.4496 33.0714 15.2543C33.151 15.059 33.3064 14.9044 33.5089 14.8194C33.6209 14.7724 33.7462 14.75 33.8611 14.7556C34.0651 14.7659 34.2508 14.6273 34.2926 14.4375C34.3466 14.3049 34.4253 14.1831 34.5269 14.0787C34.8664 13.7128 35.4183 13.5857 35.9002 13.7627C36.5393 13.9975 36.8581 14.6823 36.6108 15.2893C36.5014 15.5577 36.2932 15.7782 36.0244 15.9109C35.8214 16.011 35.742 16.2483 35.8478 16.4413C35.8958 16.5298 35.9749 16.5934 36.0658 16.6268C36.1726 16.6661 36.2961 16.6633 36.4063 16.609C36.7295 16.4497 36.9976 16.2118 37.1918 15.9246L41.0977 17.3597C41.3112 17.4382 41.5509 17.3376 41.6335 17.1348C41.7984 16.7303 42.2793 16.5284 42.7052 16.6849C42.7553 16.7033 42.8029 16.7259 42.8475 16.7524C42.9811 16.8316 43.0877 16.9452 43.1548 17.0823C43.252 17.2819 43.2607 17.5021 43.179 17.7026C43.1562 17.7585 43.1258 17.8129 43.0836 17.874C42.9981 17.9975 42.9927 18.1557 43.0695 18.2844C43.1892 18.4846 43.2064 18.7257 43.1169 18.9453C43.0373 19.1406 42.8819 19.2952 42.6789 19.3805C42.6123 19.4084 42.543 19.4245 42.4731 19.4352L42.581 19.1703C42.6637 18.9675 42.5577 18.7399 42.3442 18.6614C42.1306 18.5829 41.8909 18.6835 41.8083 18.8863L41.5093 19.6202L40.9322 21.0365L40.9321 21.0369C40.9255 21.0477 40.9194 21.0594 40.9142 21.0711C40.829 21.2569 40.6292 21.3693 40.4475 21.3318C40.3112 21.3056 40.2021 21.223 40.1459 21.099C40.1014 21.0069 40.0988 20.9017 40.1386 20.8038L40.7366 19.3362C40.8192 19.1334 40.7133 18.9058 40.4997 18.8274L36.2497 17.2658C36.0361 17.1873 35.7965 17.2879 35.7138 17.4907L35.2654 18.5914C35.2395 18.6549 35.1951 18.7127 35.1402 18.7539C35.1399 18.7541 35.1398 18.7543 35.1395 18.7545C35.021 18.8441 34.8678 18.8672 34.7295 18.8164L34.879 18.4495C34.9616 18.2467 34.8557 18.0191 34.6421 17.9406C34.4286 17.8621 34.1889 17.9627 34.1063 18.1655L33.8073 18.8994L33.3768 19.956C33.3139 20.1104 33.1689 20.2277 33.0155 20.2476C32.9714 20.2536 32.9348 20.2529 32.8926 20.2436C32.7282 20.2128 32.6445 20.1063 32.6098 20.0466ZM35.1614 27.028L34.9032 26.4732L36.0829 25.978L35.1614 27.028ZM33.3705 23.1805L33.4424 21.6117L34.425 21.1992L35.1559 22.7696L33.5023 23.4637L33.3705 23.1805ZM34.046 20.435C34.0504 20.4281 34.0554 20.4216 34.0597 20.4146L34.09 20.4796L33.987 20.5229C33.9968 20.51 34.0048 20.4958 34.0141 20.4825C34.0251 20.4668 34.0357 20.4512 34.046 20.435ZM35.1827 20.8811L36.8363 20.187L37.5673 21.7573L35.9137 22.4515L35.1827 20.8811ZM37.8309 20.3778L39.2817 20.9108C39.2814 20.9205 39.2842 20.9299 39.2842 20.9395C39.2839 20.9717 39.2865 21.0033 39.2891 21.0352C39.288 21.0356 39.2869 21.0355 39.2858 21.0359L38.325 21.4392L37.8309 20.3778ZM39.5154 20.153L36.0381 18.8754L36.3371 18.1415L39.8144 19.4192L39.5154 20.153ZM34.8152 19.6225C34.883 19.6259 34.9499 19.6253 35.017 19.6182C35.0519 19.6144 35.086 19.609 35.1205 19.6024C35.1854 19.59 35.2485 19.5719 35.3109 19.5495C35.3419 19.5384 35.3728 19.5291 35.4029 19.5156C35.4162 19.5097 35.4306 19.507 35.4437 19.5006L35.9655 19.6923L34.8477 20.1616L34.5812 19.5889C34.6281 19.6001 34.6745 19.6119 34.7218 19.6178C34.7531 19.6217 34.7839 19.6209 34.8152 19.6225ZM33.2892 24.9518L33.8105 26.0717L33.2266 26.3168L33.2892 24.9518ZM33.8373 24.1833L35.4909 23.4891L36.2219 25.0595L34.5682 25.7536L33.8373 24.1833ZM37.2781 24.6161L36.9796 24.7414L36.2486 23.171L37.9022 22.4769L38.3366 23.4099L37.2781 24.6161ZM38.66 22.1588L39.6207 21.7555C39.6236 21.7543 39.6253 21.7518 39.6282 21.7505C39.6574 21.7799 39.6827 21.8128 39.7151 21.8392L38.9284 22.7355L38.66 22.1588ZM33.6094 28.107C33.3268 28.0031 33.1481 27.7294 33.1758 27.4228L33.1864 27.1939L34.1455 26.7913L34.5696 27.7024L34.4024 27.8929C34.2181 28.1226 33.892 28.2108 33.6094 28.107ZM42.1444 20.9979C42.0474 21.0401 41.9366 21.0426 41.8336 21.0048L42.1326 20.271C42.3457 20.3493 42.4519 20.5774 42.3694 20.7798C42.3296 20.8777 42.253 20.9538 42.1444 20.9979Z" fill="#200932"/>
<path d="M34.5607 17.3665C34.5857 17.4136 34.6178 17.4551 34.6568 17.4904C34.6958 17.5257 34.7414 17.5553 34.7916 17.5737C34.8418 17.5921 34.8965 17.5995 34.9504 17.5983C35.0042 17.597 35.057 17.5868 35.1093 17.5681C35.159 17.5439 35.2025 17.5138 35.2397 17.4768C35.2769 17.4398 35.3081 17.3964 35.3275 17.3488C35.3663 17.2535 35.3626 17.1421 35.3215 17.0471C35.3083 17.0253 35.2946 17.0034 35.2814 16.9817C35.2644 16.9585 35.2455 16.9388 35.2254 16.9232C35.2065 16.9035 35.1864 16.8879 35.165 16.8755C35.0479 16.8032 34.8961 16.7935 34.7729 16.8455C34.6748 16.8894 34.5936 16.9695 34.5547 17.0648C34.5353 17.1125 34.5235 17.1629 34.5289 17.2156C34.5302 17.2667 34.541 17.3168 34.5607 17.3665Z" fill="#200932"/>
<g filter="url(#filter0_d_4_98)">
<path d="M6.57864 40.9825H6.29954C6.29954 41.6669 6.47391 42.009 6.82264 42.009C7.02509 42.009 7.28898 41.8807 7.61431 41.6241C7.94081 41.3653 8.11226 41.2359 8.12864 41.2359C8.23513 41.2359 8.37556 41.5364 8.54993 42.1373C8.72429 42.7361 8.81148 43.1781 8.81148 43.4632C8.81148 43.8734 8.58679 44.1837 8.13742 44.3943C7.68804 44.6049 7.24861 44.7101 6.81913 44.7101C6.38848 44.7101 6.02863 44.6465 5.73958 44.5193C5.45052 44.3943 5.21472 44.2342 5.03216 44.039C4.8496 43.8438 4.68928 43.6047 4.55119 43.3218C4.41427 43.0366 4.31187 42.7646 4.244 42.5058C4.17729 42.2492 4.12405 41.963 4.08426 41.6471C4.02809 41.1843 4 40.7051 4 40.2094C4 38.2924 4.26682 36.9709 4.80045 36.2449C5.06493 35.8764 5.35983 35.6187 5.68516 35.4718C6.01049 35.3248 6.3955 35.2513 6.8402 35.2513C8.26088 35.2513 8.97122 36.178 8.97122 38.0314C8.97122 39.9988 8.17369 40.9825 6.57864 40.9825ZM6.28374 38.6762V39.7192C6.44641 39.7192 6.57982 39.5985 6.68397 39.3573C6.78812 39.1138 6.8402 38.8188 6.8402 38.4723C6.8402 37.8406 6.75301 37.5247 6.57864 37.5247C6.38204 37.5247 6.28374 37.9086 6.28374 38.6762ZM11.0777 44.6937C10.5663 44.6937 10.1649 44.4678 9.87348 44.0159C9.75529 43.8251 9.6523 43.5455 9.56453 43.177C9.47793 42.8085 9.43464 42.3775 9.43464 41.884C9.43464 41.3883 9.49783 40.9562 9.62422 40.5877C9.7506 40.2193 9.90391 39.9352 10.0841 39.7356C10.2632 39.536 10.4738 39.3726 10.7161 39.2454C11.0812 39.0678 11.4826 38.9789 11.9202 38.9789H12.1976C12.1976 38.5468 12.1192 38.2409 11.9624 38.061C11.8945 37.9886 11.7921 37.9524 11.6552 37.9524C11.5171 37.9524 11.3515 38.0204 11.1584 38.1564C10.9642 38.2924 10.8027 38.4317 10.6739 38.5742C10.544 38.7168 10.4568 38.7881 10.4124 38.7881C10.3106 38.7881 10.1731 38.5381 9.99987 38.038C9.8255 37.5379 9.73832 37.0828 9.73832 36.6726C9.73832 36.5344 9.84188 36.3557 10.049 36.1363C10.2573 35.9148 10.5511 35.7119 10.9302 35.5277C11.3094 35.3434 11.6786 35.2513 12.0379 35.2513C12.3971 35.2513 12.7078 35.3062 12.97 35.4158C13.2309 35.5277 13.4439 35.6626 13.6089 35.8205C13.7751 35.9784 13.9155 36.189 14.0302 36.4522C14.1461 36.7154 14.2332 36.9523 14.2918 37.1628C14.3514 37.3734 14.3953 37.6465 14.4234 37.982C14.462 38.3725 14.4813 38.8517 14.4813 39.4198V44.1739C14.4813 44.2901 14.331 44.3822 14.0302 44.4502C13.7306 44.5182 13.4334 44.5522 13.1385 44.5522C12.8436 44.5522 12.6522 44.5369 12.5645 44.5062C12.4779 44.4733 12.4258 44.436 12.4082 44.3943C12.3919 44.3526 12.3778 44.2792 12.3661 44.1739L12.2994 43.2724H12.2327C12.0923 44.2199 11.7073 44.6937 11.0777 44.6937ZM12.2064 42.0715V40.2258C12.0601 40.2258 11.9425 40.341 11.8535 40.5713C11.7634 40.8038 11.7184 41.067 11.7184 41.3609C11.7184 42.0562 11.8026 42.4038 11.9712 42.4038C12.0437 42.4038 12.101 42.3698 12.1432 42.3018C12.1853 42.2339 12.2064 42.1571 12.2064 42.0715ZM17.364 44.6937C16.4313 44.6937 15.7485 44.5259 15.3155 44.1903C15.0967 44.0105 14.9872 43.8361 14.9872 43.6672C14.9872 43.2351 15.0545 42.7295 15.1891 42.1505C15.3237 41.5715 15.4419 41.2819 15.5437 41.2819C15.5999 41.2819 15.7894 41.3982 16.1124 41.6307C16.4354 41.8632 16.7075 41.9794 16.9287 41.9794C17.151 41.9794 17.2973 41.9531 17.3675 41.9005C17.4377 41.8478 17.4728 41.7447 17.4728 41.5912C17.4728 41.4377 17.4167 41.317 17.3043 41.2293C17.192 41.1394 17.0516 41.078 16.883 41.0451C16.7145 41.0144 16.5331 40.9518 16.3389 40.8575C16.1458 40.7632 15.965 40.6415 15.7965 40.4923C15.6279 40.3454 15.4875 40.1008 15.3752 39.7587C15.2628 39.4165 15.2067 39.048 15.2067 38.6532C15.2067 38.2584 15.2119 37.9634 15.2225 37.7682C15.2342 37.5752 15.281 37.3021 15.3629 36.949C15.4436 36.5958 15.5583 36.3085 15.7069 36.087C15.8567 35.8655 16.0873 35.6659 16.3986 35.4882C16.7098 35.3084 17.0597 35.2184 17.4483 35.2184C17.8356 35.2184 18.1598 35.2426 18.4207 35.2908C18.6817 35.3369 18.8865 35.3972 19.0351 35.4718C19.1849 35.5463 19.3072 35.6308 19.402 35.7251C19.5647 35.883 19.646 36.0563 19.646 36.2449C19.646 36.6551 19.5676 37.1288 19.4108 37.6662C19.254 38.2036 19.1287 38.4723 19.0351 38.4723C18.9427 38.4723 18.742 38.3801 18.433 38.1959C18.1241 38.0117 17.8965 37.9195 17.7502 37.9195C17.515 37.9195 17.3974 38.0457 17.3974 38.2979C17.3974 38.4558 17.4775 38.5742 17.6378 38.6532C17.797 38.7322 17.9889 38.8144 18.2136 38.9C18.4383 38.9833 18.6647 39.1018 18.8929 39.2553C19.12 39.4066 19.3136 39.683 19.474 40.0844C19.6343 40.4836 19.7145 40.988 19.7145 41.5978C19.7145 43.6617 18.931 44.6937 17.364 44.6937ZM23.0598 43.5257V42.5947H22.9914C22.9633 42.6473 22.9212 42.7153 22.865 42.7986C22.8088 42.8842 22.6772 42.9949 22.47 43.1309C22.2617 43.2669 22.03 43.3349 21.7749 43.3349C21.5186 43.3349 21.2939 43.2592 21.1008 43.1079C20.9066 42.9544 20.7533 42.7493 20.6409 42.4927C20.5286 42.2339 20.4414 41.8884 20.3794 41.4563C20.2729 40.772 20.2196 39.8036 20.2196 38.5512V36.3732C20.2196 36.1517 20.3852 35.9324 20.7164 35.7152C21.0476 35.5003 21.3957 35.3928 21.7609 35.3928C22.25 35.3928 22.4946 35.6297 22.4946 36.1034V38.0939C22.4946 40.1995 22.5847 41.2523 22.7649 41.2523C22.8714 41.2523 22.9247 41.1098 22.9247 40.8246V36.3732C22.9247 36.1517 23.1014 35.9324 23.4548 35.7152C23.8094 35.5003 24.1885 35.3928 24.5923 35.3928C24.9972 35.3928 25.1996 35.5979 25.1996 36.008V43.4797C25.1996 45.8266 24.3512 47 22.6544 47C21.7615 47 21.1547 46.8366 20.834 46.5098C20.6936 46.3628 20.6234 46.2104 20.6234 46.0525C20.6234 45.8002 20.6796 45.3769 20.7919 44.7825C20.9042 44.1859 21.0084 43.8876 21.1044 43.8876C21.1266 43.8876 21.205 43.9194 21.3396 43.983C21.7562 44.1936 22.1032 44.2989 22.3805 44.2989C22.659 44.2989 22.8416 44.2408 22.9282 44.1245C23.016 44.0105 23.0598 43.8109 23.0598 43.5257ZM28.1062 36.3864V44.1739C28.1062 44.2901 27.9447 44.3822 27.6217 44.4502C27.2987 44.5182 26.9675 44.5522 26.6282 44.5522C26.2876 44.5522 26.0682 44.5237 25.9699 44.4667C25.8716 44.4075 25.8225 44.3099 25.8225 44.1739V36.6726C25.8225 36.4401 25.981 36.2109 26.2982 35.985C26.6165 35.7591 26.9634 35.6461 27.3391 35.6461C27.8505 35.6461 28.1062 35.8929 28.1062 36.3864ZM26.9599 32.2344C27.3309 32.2344 27.6217 32.3375 27.8324 32.5436C28.043 32.7476 28.1483 33.1183 28.1483 33.6557C28.1483 34.6032 27.7551 35.077 26.9687 35.077C26.1823 35.077 25.7891 34.6032 25.7891 33.6557C25.7891 32.7081 26.1794 32.2344 26.9599 32.2344ZM29.8247 44.2824C29.6901 44.1684 29.5456 43.9951 29.3911 43.7626C29.2367 43.5301 29.1091 43.256 29.0085 42.9401C28.7721 42.1834 28.6539 41.1942 28.6539 39.9725C28.6539 39.2136 28.7182 38.537 28.847 37.9426C28.9769 37.3482 29.1343 36.8876 29.3192 36.5608C29.5052 36.2339 29.7188 35.9653 29.9599 35.7547C30.3472 35.4191 30.7346 35.2513 31.1219 35.2513C31.7738 35.2513 32.2278 35.3456 32.4841 35.5343C32.7392 35.7251 32.8668 36.0464 32.8668 36.4982C32.8668 36.9501 32.8235 37.4315 32.7369 37.9426C32.6491 38.4536 32.535 38.7091 32.3946 38.7091C32.3501 38.7091 32.2138 38.6192 31.9856 38.4394C31.7585 38.2617 31.5619 38.1729 31.3958 38.1729C31.2308 38.1729 31.1044 38.2968 31.0166 38.5446C30.93 38.7903 30.8867 39.2684 30.8867 39.9791C30.8867 40.6897 30.9259 41.1745 31.0043 41.4333C31.0827 41.6921 31.205 41.8215 31.3712 41.8215C31.5374 41.8215 31.7439 41.7162 31.9908 41.5057C32.2378 41.2951 32.3753 41.1898 32.4033 41.1898C32.5098 41.1898 32.6122 41.4267 32.7105 41.9005C32.8088 42.3742 32.858 42.7953 32.858 43.1638C32.858 43.7319 32.7006 44.1289 32.3858 44.3548C32.0722 44.5807 31.6468 44.6937 31.1096 44.6937C30.5737 44.6937 30.1454 44.5566 29.8247 44.2824ZM35.8667 40.9825H35.5876C35.5876 41.6669 35.762 42.009 36.1107 42.009C36.3131 42.009 36.577 41.8807 36.9024 41.6241C37.2289 41.3653 37.4003 41.2359 37.4167 41.2359C37.5232 41.2359 37.6636 41.5364 37.838 42.1373C38.0123 42.7361 38.0995 43.1781 38.0995 43.4632C38.0995 43.8734 37.8748 44.1837 37.4255 44.3943C36.9761 44.6049 36.5367 44.7101 36.1072 44.7101C35.6765 44.7101 35.3167 44.6465 35.0276 44.5193C34.7386 44.3943 34.5028 44.2342 34.3202 44.039C34.1377 43.8438 33.9773 43.6047 33.8392 43.3218C33.7023 43.0366 33.5999 42.7646 33.5321 42.5058C33.4653 42.2492 33.4121 41.963 33.3723 41.6471C33.3161 41.1843 33.2881 40.7051 33.2881 40.2094C33.2881 38.2924 33.5549 36.9709 34.0885 36.2449C34.353 35.8764 34.6479 35.6187 34.9732 35.4718C35.2985 35.3248 35.6836 35.2513 36.1282 35.2513C37.5489 35.2513 38.2593 36.178 38.2593 38.0314C38.2593 39.9988 37.4617 40.9825 35.8667 40.9825ZM35.5718 38.6762V39.7192C35.7345 39.7192 35.8679 39.5985 35.972 39.3573C36.0762 39.1138 36.1282 38.8188 36.1282 38.4723C36.1282 37.8406 36.0411 37.5247 35.8667 37.5247C35.6701 37.5247 35.5718 37.9086 35.5718 38.6762ZM39.8514 44.2824C39.7168 44.1684 39.5723 43.9951 39.4178 43.7626C39.2633 43.5301 39.1358 43.256 39.0351 42.9401C38.7988 42.1834 38.6806 41.1942 38.6806 39.9725C38.6806 39.2136 38.7449 38.537 38.8737 37.9426C39.0035 37.3482 39.1609 36.8876 39.3458 36.5608C39.5319 36.2339 39.7455 35.9653 39.9866 35.7547C40.3739 35.4191 40.7613 35.2513 41.1486 35.2513C41.8004 35.2513 42.2545 35.3456 42.5108 35.5343C42.7659 35.7251 42.8935 36.0464 42.8935 36.4982C42.8935 36.9501 42.8502 37.4315 42.7636 37.9426C42.6758 38.4536 42.5617 38.7091 42.4213 38.7091C42.3768 38.7091 42.2405 38.6192 42.0123 38.4394C41.7852 38.2617 41.5886 38.1729 41.4225 38.1729C41.2574 38.1729 41.1311 38.2968 41.0433 38.5446C40.9567 38.7903 40.9134 39.2684 40.9134 39.9791C40.9134 40.6897 40.9526 41.1745 41.031 41.4333C41.1094 41.6921 41.2317 41.8215 41.3979 41.8215C41.5641 41.8215 41.7706 41.7162 42.0175 41.5057C42.2644 41.2951 42.402 41.1898 42.43 41.1898C42.5365 41.1898 42.6389 41.4267 42.7372 41.9005C42.8355 42.3742 42.8847 42.7953 42.8847 43.1638C42.8847 43.7319 42.7273 44.1289 42.4125 44.3548C42.0989 44.5807 41.6735 44.6937 41.1363 44.6937C40.6004 44.6937 40.172 44.5566 39.8514 44.2824ZM45.674 39.5613V44.1739C45.674 44.2901 45.5154 44.3822 45.1983 44.4502C44.8811 44.5182 44.5523 44.5522 44.2117 44.5522C43.8724 44.5522 43.6518 44.5237 43.55 44.4667C43.4493 44.4075 43.399 44.3099 43.399 44.1739V36.3864C43.399 36.1868 43.5546 35.9718 43.8659 35.7415C44.1784 35.509 44.5183 35.3928 44.8858 35.3928C45.2544 35.3928 45.461 35.5825 45.5055 35.962L45.5897 36.6891H45.6494C45.7278 36.2877 45.9156 35.9477 46.2129 35.6692C46.5113 35.3906 46.8091 35.2513 47.1064 35.2513C47.4036 35.2513 47.6131 35.3402 47.7348 35.5178C47.8553 35.6977 47.9156 35.9269 47.9156 36.2054C47.9156 36.484 47.9045 36.8393 47.8822 37.2714C47.8588 37.7035 47.8038 38.1718 47.7172 38.6762C47.6306 39.1829 47.5171 39.4362 47.3767 39.4362C47.3205 39.4362 47.1432 39.3573 46.8448 39.1994C46.5476 39.0414 46.3018 38.9625 46.1075 38.9625C45.9145 38.9625 45.7939 39.0151 45.7459 39.1204C45.698 39.2257 45.674 39.3726 45.674 39.5613ZM50.8309 40.9825H50.5518C50.5518 41.6669 50.7262 42.009 51.0749 42.009C51.2774 42.009 51.5412 41.8807 51.8666 41.6241C52.1931 41.3653 52.3645 41.2359 52.3809 41.2359C52.4874 41.2359 52.6278 41.5364 52.8022 42.1373C52.9766 42.7361 53.0637 43.1781 53.0637 43.4632C53.0637 43.8734 52.8391 44.1837 52.3897 44.3943C51.9403 44.6049 51.5009 44.7101 51.0714 44.7101C50.6407 44.7101 50.2809 44.6465 49.9918 44.5193C49.7028 44.3943 49.467 44.2342 49.2844 44.039C49.1019 43.8438 48.9415 43.6047 48.8034 43.3218C48.6665 43.0366 48.5641 42.7646 48.4963 42.5058C48.4296 42.2492 48.3763 41.963 48.3365 41.6471C48.2803 41.1843 48.2523 40.7051 48.2523 40.2094C48.2523 38.2924 48.5191 36.9709 49.0527 36.2449C49.3172 35.8764 49.6121 35.6187 49.9374 35.4718C50.2627 35.3248 50.6478 35.2513 51.0925 35.2513C52.5131 35.2513 53.2235 36.178 53.2235 38.0314C53.2235 39.9988 52.426 40.9825 50.8309 40.9825ZM50.536 38.6762V39.7192C50.6987 39.7192 50.8321 39.5985 50.9362 39.3573C51.0404 39.1138 51.0925 38.8188 51.0925 38.4723C51.0925 37.8406 51.0053 37.5247 50.8309 37.5247C50.6343 37.5247 50.536 37.9086 50.536 38.6762ZM55.3299 44.6937C54.8185 44.6937 54.4171 44.4678 54.1257 44.0159C54.0075 43.8251 53.9046 43.5455 53.8168 43.177C53.7302 42.8085 53.6869 42.3775 53.6869 41.884C53.6869 41.3883 53.7501 40.9562 53.8765 40.5877C54.0029 40.2193 54.1562 39.9352 54.3364 39.7356C54.5154 39.536 54.7261 39.3726 54.9683 39.2454C55.3334 39.0678 55.7348 38.9789 56.1725 38.9789H56.4499C56.4499 38.5468 56.3714 38.2409 56.2146 38.061C56.1468 37.9886 56.0444 37.9524 55.9074 37.9524C55.7694 37.9524 55.6038 38.0204 55.4107 38.1564C55.2164 38.2924 55.0549 38.4317 54.9262 38.5742C54.7963 38.7168 54.7091 38.7881 54.6646 38.7881C54.5628 38.7881 54.4253 38.5381 54.2521 38.038C54.0778 37.5379 53.9906 37.0828 53.9906 36.6726C53.9906 36.5344 54.0941 36.3557 54.3013 36.1363C54.5096 35.9148 54.8033 35.7119 55.1825 35.5277C55.5616 35.3434 55.9308 35.2513 56.2901 35.2513C56.6494 35.2513 56.9601 35.3062 57.2222 35.4158C57.4832 35.5277 57.6962 35.6626 57.8612 35.8205C58.0273 35.9784 58.1678 36.189 58.2825 36.4522C58.3983 36.7154 58.4855 36.9523 58.544 37.1628C58.6037 37.3734 58.6476 37.6465 58.6757 37.982C58.7143 38.3725 58.7336 38.8517 58.7336 39.4198V44.1739C58.7336 44.2901 58.5832 44.3822 58.2825 44.4502C57.9829 44.5182 57.6856 44.5522 57.3907 44.5522C57.0958 44.5522 56.9045 44.5369 56.8167 44.5062C56.7301 44.4733 56.6781 44.436 56.6605 44.3943C56.6441 44.3526 56.6301 44.2792 56.6184 44.1739L56.5517 43.2724H56.485C56.3445 44.2199 55.9595 44.6937 55.3299 44.6937ZM56.4586 42.0715V40.2258C56.3124 40.2258 56.1947 40.341 56.1058 40.5713C56.0157 40.8038 55.9706 41.067 55.9706 41.3609C55.9706 42.0562 56.0549 42.4038 56.2234 42.4038C56.296 42.4038 56.3533 42.3698 56.3954 42.3018C56.4376 42.2339 56.4586 42.1571 56.4586 42.0715ZM67 39.3408V44.1739C67 44.2901 66.8414 44.3822 66.5243 44.4502C66.206 44.5182 65.8771 44.5522 65.5378 44.5522C65.1984 44.5522 64.9778 44.5237 64.876 44.4667C64.7754 44.4075 64.725 44.3099 64.725 44.1739V39.7981C64.725 38.2935 64.6437 37.5412 64.481 37.5412C64.4412 37.5412 64.4015 37.573 64.3617 37.6366C64.3231 37.698 64.3037 37.8077 64.3037 37.9656V44.1739C64.3037 44.2901 64.1452 44.3822 63.828 44.4502C63.5097 44.5182 63.1797 44.5522 62.838 44.5522C62.4951 44.5522 62.2745 44.5237 62.1762 44.4667C62.0779 44.4075 62.0288 44.3099 62.0288 44.1739V39.7981C62.0288 38.6291 61.9896 37.9294 61.9112 37.6991C61.8714 37.5938 61.8205 37.5412 61.7585 37.5412C61.652 37.5412 61.5987 37.6827 61.5987 37.9656V44.1739C61.5987 44.2901 61.4384 44.3822 61.1177 44.4502C60.7983 44.5182 60.4683 44.5522 60.1277 44.5522C59.7883 44.5522 59.5695 44.5237 59.4712 44.4667C59.3729 44.4075 59.3238 44.3099 59.3238 44.1739V36.3864C59.3238 36.167 59.4852 35.9466 59.8082 35.7251C60.1312 35.5036 60.4723 35.3928 60.8316 35.3928C61.1909 35.3928 61.3933 35.588 61.439 35.9784L61.5145 36.6726H61.5741C61.7368 36.0716 62.006 35.645 62.3816 35.3928C62.5396 35.2985 62.742 35.2513 62.989 35.2513C63.4828 35.2513 63.8421 35.7251 64.0668 36.6726C64.1405 36.3568 64.3231 36.0409 64.6144 35.7251C64.907 35.4092 65.23 35.2513 65.5834 35.2513C66.1405 35.2513 66.5155 35.5748 66.7086 36.2219C66.9029 36.8689 67 37.9086 67 39.3408Z" fill="#BADEFF"/>
</g>
<defs>
<filter id="filter0_d_4_98" x="0" y="32.2344" width="71" height="22.7656" filterUnits="userSpaceOnUse" color-interpolation-filters="sRGB">
<feFlood flood-opacity="0" result="BackgroundImageFix"/>
<feColorMatrix in="SourceAlpha" type="matrix" values="0 0 0 0 0 0 0 0 0 0 0 0 0 0 0 0 0 0 127 0" result="hardAlpha"/>
<feOffset dy="4"/>
<feGaussianBlur stdDeviation="2"/>
<feComposite in2="hardAlpha" operator="out"/>
<feColorMatrix type="matrix" values="0 0 0 0 0.21906 0 0 0 0 0.15224 0 0 0 0 0.9875 0 0 0 0.65 0"/>
<feBlend mode="normal" in2="BackgroundImageFix" result="effect1_dropShadow_4_98"/>
<feBlend mode="normal" in="SourceGraphic" in2="effect1_dropShadow_4_98" result="shape"/>
</filter>
</defs>
</svg>
